HIERARCHY
ROOT mixamorig:Hips
{
	OFFSET -0.000000 103.991470 2.076077 
	CHANNELS 6 Xposition Yposition Zposition Xrotation Yrotation Zrotation
	JOINT mixamorig:Spine
	{
		OFFSET 0.000009 10.181587 0.131521 
		CHANNELS 6 Xposition Yposition Zposition Xrotation Yrotation Zrotation
		JOINT mixamorig:Spine1
		{
			OFFSET 0.000000 10.083450 -1.000804 
			CHANNELS 6 Xposition Yposition Zposition Xrotation Yrotation Zrotation
			JOINT mixamorig:Spine2
			{
				OFFSET 0.000000 9.100014 -1.373417 
				CHANNELS 6 Xposition Yposition Zposition Xrotation Yrotation Zrotation
				JOINT mixamorig:Neck
				{
					OFFSET 0.000001 16.671661 -2.516168 
					CHANNELS 6 Xposition Yposition Zposition Xrotation Yrotation Zrotation
					JOINT mixamorig:Head
					{
						OFFSET -0.000000 9.617889 1.685008 
						CHANNELS 6 Xposition Yposition Zposition Xrotation Yrotation Zrotation
						JOINT mixamorig:HeadTop_End
						{
							OFFSET -0.000001 17.815155 2.584985 
							CHANNELS 6 Xposition Yposition Zposition Xrotation Yrotation Zrotation
							End Site
							{
								OFFSET 0.000000 13.794479 0.000000 
							}
						}
						JOINT mixamorig:LeftEye
						{
							OFFSET 3.067561 6.409500 9.283554 
							CHANNELS 6 Xposition Yposition Zposition Xrotation Yrotation Zrotation
							End Site
							{
								OFFSET 0.000000 13.794479 0.000000 
							}
						}
						JOINT mixamorig:RightEye
						{
							OFFSET -3.067550 6.409500 9.283547 
							CHANNELS 6 Xposition Yposition Zposition Xrotation Yrotation Zrotation
							End Site
							{
								OFFSET 0.000000 13.794479 0.000000 
							}
						}
					}
				}
				JOINT mixamorig:LeftShoulder
				{
					OFFSET 4.570446 10.945984 -2.627988 
					CHANNELS 6 Xposition Yposition Zposition Xrotation Yrotation Zrotation
					JOINT mixamorig:LeftArm
					{
						OFFSET 10.592371 -0.524582 -2.232120 
						CHANNELS 6 Xposition Yposition Zposition Xrotation Yrotation Zrotation
						JOINT mixamorig:LeftForeArm
						{
							OFFSET 27.841522 -0.000092 0.000038 
							CHANNELS 6 Xposition Yposition Zposition Xrotation Yrotation Zrotation
							JOINT mixamorig:LeftHand
							{
								OFFSET 28.328835 -0.000015 0.000038 
								CHANNELS 6 Xposition Yposition Zposition Xrotation Yrotation Zrotation
								JOINT mixamorig:LeftHandThumb1
								{
									OFFSET 2.466141 -1.575058 2.682414 
									CHANNELS 6 Xposition Yposition Zposition Xrotation Yrotation Zrotation
									JOINT mixamorig:LeftHandThumb2
									{
										OFFSET 3.229805 -1.864685 1.864681 
										CHANNELS 6 Xposition Yposition Zposition Xrotation Yrotation Zrotation
										JOINT mixamorig:LeftHandThumb3
										{
											OFFSET 2.652565 -1.531494 1.531472 
											CHANNELS 6 Xposition Yposition Zposition Xrotation Yrotation Zrotation
											JOINT mixamorig:LeftHandThumb4
											{
												OFFSET 1.954567 -1.128494 1.128492 
												CHANNELS 6 Xposition Yposition Zposition Xrotation Yrotation Zrotation
												End Site
												{
													OFFSET 0.000000 2.523361 0.000000 
												}
											}
										}
									}
								}
								JOINT mixamorig:LeftHandIndex1
								{
									OFFSET 9.109306 -0.517090 2.260073 
									CHANNELS 6 Xposition Yposition Zposition Xrotation Yrotation Zrotation
									JOINT mixamorig:LeftHandIndex2
									{
										OFFSET 3.676407 0.000000 0.000029 
										CHANNELS 6 Xposition Yposition Zposition Xrotation Yrotation Zrotation
										JOINT mixamorig:LeftHandIndex3
										{
											OFFSET 2.883064 0.000031 -0.000043 
											CHANNELS 6 Xposition Yposition Zposition Xrotation Yrotation Zrotation
											JOINT mixamorig:LeftHandIndex4
											{
												OFFSET 2.392723 0.000031 0.000034 
												CHANNELS 6 Xposition Yposition Zposition Xrotation Yrotation Zrotation
												End Site
												{
													OFFSET 0.000000 2.392715 0.000000 
												}
											}
										}
									}
								}
								JOINT mixamorig:LeftHandMiddle1
								{
									OFFSET 9.533401 -0.000031 0.000014 
									CHANNELS 6 Xposition Yposition Zposition Xrotation Yrotation Zrotation
									JOINT mixamorig:LeftHandMiddle2
									{
										OFFSET 3.698235 0.000000 0.000018 
										CHANNELS 6 Xposition Yposition Zposition Xrotation Yrotation Zrotation
										JOINT mixamorig:LeftHandMiddle3
										{
											OFFSET 2.950928 -0.000046 0.000016 
											CHANNELS 6 Xposition Yposition Zposition Xrotation Yrotation Zrotation
											JOINT mixamorig:LeftHandMiddle4
											{
												OFFSET 2.833900 -0.000046 -0.000010 
												CHANNELS 6 Xposition Yposition Zposition Xrotation Yrotation Zrotation
												End Site
												{
													OFFSET 0.000000 2.833908 0.000000 
												}
											}
										}
									}
								}
								JOINT mixamorig:LeftHandRing1
								{
									OFFSET 9.104530 -0.043945 -1.865085 
									CHANNELS 6 Xposition Yposition Zposition Xrotation Yrotation Zrotation
									JOINT mixamorig:LeftHandRing2
									{
										OFFSET 3.154022 0.000000 0.000010 
										CHANNELS 6 Xposition Yposition Zposition Xrotation Yrotation Zrotation
										JOINT mixamorig:LeftHandRing3
										{
											OFFSET 2.937675 -0.000046 -0.000007 
											CHANNELS 6 Xposition Yposition Zposition Xrotation Yrotation Zrotation
											JOINT mixamorig:LeftHandRing4
											{
												OFFSET 2.647453 -0.000046 0.000000 
												CHANNELS 6 Xposition Yposition Zposition Xrotation Yrotation Zrotation
												End Site
												{
													OFFSET 0.000000 2.647446 0.000000 
												}
											}
										}
									}
								}
								JOINT mixamorig:LeftHandPinky1
								{
									OFFSET 8.077782 -0.488663 -3.806067 
									CHANNELS 6 Xposition Yposition Zposition Xrotation Yrotation Zrotation
									JOINT mixamorig:LeftHandPinky2
									{
										OFFSET 3.600029 -0.000015 -0.000027 
										CHANNELS 6 Xposition Yposition Zposition Xrotation Yrotation Zrotation
										JOINT mixamorig:LeftHandPinky3
										{
											OFFSET 2.114212 0.000031 -0.000003 
											CHANNELS 6 Xposition Yposition Zposition Xrotation Yrotation Zrotation
											JOINT mixamorig:LeftHandPinky4
											{
												OFFSET 1.975685 0.000015 -0.000044 
												CHANNELS 6 Xposition Yposition Zposition Xrotation Yrotation Zrotation
												End Site
												{
													OFFSET 0.000000 1.975677 0.000000 
												}
											}
										}
									}
								}
							}
						}
					}
				}
				JOINT mixamorig:RightShoulder
				{
					OFFSET -4.569970 10.946182 -2.628017 
					CHANNELS 6 Xposition Yposition Zposition Xrotation Yrotation Zrotation
					JOINT mixamorig:RightArm
					{
						OFFSET -10.592844 -0.524811 -2.232099 
						CHANNELS 6 Xposition Yposition Zposition Xrotation Yrotation Zrotation
						JOINT mixamorig:RightForeArm
						{
							OFFSET -27.841522 -0.000031 0.000012 
							CHANNELS 6 Xposition Yposition Zposition Xrotation Yrotation Zrotation
							JOINT mixamorig:RightHand
							{
								OFFSET -28.328835 0.000000 0.000056 
								CHANNELS 6 Xposition Yposition Zposition Xrotation Yrotation Zrotation
								JOINT mixamorig:RightHandPinky1
								{
									OFFSET -8.076675 -0.488449 -3.806010 
									CHANNELS 6 Xposition Yposition Zposition Xrotation Yrotation Zrotation
									JOINT mixamorig:RightHandPinky2
									{
										OFFSET -3.600037 0.000031 0.000051 
										CHANNELS 6 Xposition Yposition Zposition Xrotation Yrotation Zrotation
										JOINT mixamorig:RightHandPinky3
										{
											OFFSET -2.114212 0.000015 0.000015 
											CHANNELS 6 Xposition Yposition Zposition Xrotation Yrotation Zrotation
											JOINT mixamorig:RightHandPinky4
											{
												OFFSET -1.975685 -0.000015 -0.000001 
												CHANNELS 6 Xposition Yposition Zposition Xrotation Yrotation Zrotation
												End Site
												{
													OFFSET 0.000000 1.975677 0.000000 
												}
											}
										}
									}
								}
								JOINT mixamorig:RightHandRing1
								{
									OFFSET -9.103592 -0.043915 -1.865072 
									CHANNELS 6 Xposition Yposition Zposition Xrotation Yrotation Zrotation
									JOINT mixamorig:RightHandRing2
									{
										OFFSET -3.154022 0.000031 0.000049 
										CHANNELS 6 Xposition Yposition Zposition Xrotation Yrotation Zrotation
										JOINT mixamorig:RightHandRing3
										{
											OFFSET -2.937675 -0.000046 -0.000040 
											CHANNELS 6 Xposition Yposition Zposition Xrotation Yrotation Zrotation
											JOINT mixamorig:RightHandRing4
											{
												OFFSET -2.647453 0.000031 -0.000002 
												CHANNELS 6 Xposition Yposition Zposition Xrotation Yrotation Zrotation
												End Site
												{
													OFFSET 0.000000 2.647446 0.000000 
												}
											}
										}
									}
								}
								JOINT mixamorig:RightHandMiddle1
								{
									OFFSET -9.532509 -0.000015 0.000017 
									CHANNELS 6 Xposition Yposition Zposition Xrotation Yrotation Zrotation
									JOINT mixamorig:RightHandMiddle2
									{
										OFFSET -3.698235 0.000015 -0.000022 
										CHANNELS 6 Xposition Yposition Zposition Xrotation Yrotation Zrotation
										JOINT mixamorig:RightHandMiddle3
										{
											OFFSET -2.950920 0.000000 -0.000000 
											CHANNELS 6 Xposition Yposition Zposition Xrotation Yrotation Zrotation
											JOINT mixamorig:RightHandMiddle4
											{
												OFFSET -2.833900 0.000015 0.000054 
												CHANNELS 6 Xposition Yposition Zposition Xrotation Yrotation Zrotation
												End Site
												{
													OFFSET 0.000000 2.833908 0.000000 
												}
											}
										}
									}
								}
								JOINT mixamorig:RightHandIndex1
								{
									OFFSET -9.108284 -0.516785 2.260116 
									CHANNELS 6 Xposition Yposition Zposition Xrotation Yrotation Zrotation
									JOINT mixamorig:RightHandIndex2
									{
										OFFSET -3.676407 0.000015 0.000032 
										CHANNELS 6 Xposition Yposition Zposition Xrotation Yrotation Zrotation
										JOINT mixamorig:RightHandIndex3
										{
											OFFSET -2.883064 -0.000046 0.000040 
											CHANNELS 6 Xposition Yposition Zposition Xrotation Yrotation Zrotation
											JOINT mixamorig:RightHandIndex4
											{
												OFFSET -2.392723 0.000031 0.000028 
												CHANNELS 6 Xposition Yposition Zposition Xrotation Yrotation Zrotation
												End Site
												{
													OFFSET 0.000000 2.392715 0.000000 
												}
											}
										}
									}
								}
								JOINT mixamorig:RightHandThumb1
								{
									OFFSET -2.464806 -1.572708 2.682626 
									CHANNELS 6 Xposition Yposition Zposition Xrotation Yrotation Zrotation
									JOINT mixamorig:RightHandThumb2
									{
										OFFSET -3.229774 -1.864716 1.864719 
										CHANNELS 6 Xposition Yposition Zposition Xrotation Yrotation Zrotation
										JOINT mixamorig:RightHandThumb3
										{
											OFFSET -2.652603 -1.531448 1.531446 
											CHANNELS 6 Xposition Yposition Zposition Xrotation Yrotation Zrotation
											JOINT mixamorig:RightHandThumb4
											{
												OFFSET -1.954582 -1.128464 1.128507 
												CHANNELS 6 Xposition Yposition Zposition Xrotation Yrotation Zrotation
												End Site
												{
													OFFSET 0.000000 2.523361 0.000000 
												}
											}
										}
									}
								}
							}
						}
					}
				}
			}
		}
	}
	JOINT mixamorig:LeftUpLeg
	{
		OFFSET 8.207782 -6.751717 -1.599555 
		CHANNELS 6 Xposition Yposition Zposition Xrotation Yrotation Zrotation
		JOINT mixamorig:LeftLeg
		{
			OFFSET -0.000001 -44.370472 0.284643 
			CHANNELS 6 Xposition Yposition Zposition Xrotation Yrotation Zrotation
			JOINT mixamorig:LeftFoot
			{
				OFFSET 0.000001 -44.427872 -2.982191 
				CHANNELS 6 Xposition Yposition Zposition Xrotation Yrotation Zrotation
				JOINT mixamorig:LeftToeBase
				{
					OFFSET -0.000003 -8.728670 10.710560 
					CHANNELS 6 Xposition Yposition Zposition Xrotation Yrotation Zrotation
					JOINT mixamorig:LeftToe_End
					{
						OFFSET -0.000003 -0.000677 9.278137 
						CHANNELS 6 Xposition Yposition Zposition Xrotation Yrotation Zrotation
						End Site
						{
							OFFSET 0.000000 9.278136 0.000000 
						}
					}
				}
			}
		}
	}
	JOINT mixamorig:RightUpLeg
	{
		OFFSET -8.207796 -6.751663 -1.599559 
		CHANNELS 6 Xposition Yposition Zposition Xrotation Yrotation Zrotation
		JOINT mixamorig:RightLeg
		{
			OFFSET 0.000000 -44.370537 0.286156 
			CHANNELS 6 Xposition Yposition Zposition Xrotation Yrotation Zrotation
			JOINT mixamorig:RightFoot
			{
				OFFSET 0.000001 -44.427731 -2.983789 
				CHANNELS 6 Xposition Yposition Zposition Xrotation Yrotation Zrotation
				JOINT mixamorig:RightToeBase
				{
					OFFSET -0.000002 -8.728668 10.710562 
					CHANNELS 6 Xposition Yposition Zposition Xrotation Yrotation Zrotation
					JOINT mixamorig:RightToe_End
					{
						OFFSET -0.000002 -0.000676 9.278120 
						CHANNELS 6 Xposition Yposition Zposition Xrotation Yrotation Zrotation
						End Site
						{
							OFFSET 0.000000 9.278120 0.000000 
						}
					}
				}
			}
		}
	}
}
MOTION
Frames: 3
Frame Time: 0.033333
4.432471 -26.536901 14.583190 5.727766 -46.749355 -2.371545 0.000008 10.181600 0.131521 7.654788 4.460571 2.411358 0.000002 10.083457 -1.000802 3.067810 1.553866 0.232176 0.000001 9.100015 -1.373417 3.082960 1.518252 0.236845 -0.000001 16.671673 -2.516170 2.374907 2.481852 -1.969098 -0.000003 9.617882 1.685014 18.546618 10.876101 -18.838799 -0.000003 17.815170 2.584976 -0.000001 0.000000 0.000000 3.067557 6.409515 9.283546 -0.000001 0.000000 0.000000 -3.067553 6.409515 9.283545 -0.000001 0.000000 0.000000 4.570444 10.945987 -2.627990 -0.913600 6.371637 6.410797 10.592368 -0.524584 -2.232117 -21.673649 -64.368721 2.231423 27.841518 -0.000092 0.000037 -0.000066 -17.726479 -0.000216 28.328833 -0.000015 0.000036 -1.222126 4.239575 71.010399 2.466148 -1.575043 2.682415 -0.014334 -6.740403 14.852752 3.229806 -1.864685 1.864683 -6.214744 30.403173 -6.095097 2.652574 -1.531500 1.531467 18.159651 67.040718 3.128387 1.954568 -1.128494 1.128502 0.000000 -0.000000 -0.000000 9.109315 -0.517069 2.260072 0.514806 -2.997152 13.059644 3.676418 -0.000009 0.000040 10.211510 5.981043 -119.370728 2.883074 0.000040 -0.000036 6.890832 6.855270 -90.297348 2.392744 0.000030 0.000028 -0.000000 -0.000000 0.000001 9.533423 -0.000024 0.000014 0.153329 -1.445095 12.112663 3.698229 -0.000003 0.000015 9.368758 6.380027 -111.554962 2.950927 -0.000034 0.000014 7.079267 6.851707 -91.876312 2.833914 -0.000047 -0.000006 0.000000 0.000000 -0.000002 9.104547 -0.043952 -1.865088 -1.300565 6.664507 10.645815 3.154047 -0.000003 0.000010 8.973706 6.521327 -108.039856 2.937676 -0.000079 -0.000006 8.529685 6.648678 -104.169212 2.647447 -0.000057 0.000001 -0.000001 -0.000000 -0.000001 8.077790 -0.488682 -3.806066 -1.858473 15.674584 7.705480 3.600023 0.000002 -0.000032 7.987554 2.674965 -99.510490 2.114219 0.000000 0.000000 10.751889 5.644623 -124.702477 1.975687 0.000012 -0.000045 0.000001 0.000001 -0.000001 -4.569972 10.946173 -2.628016 3.228219 10.323967 1.819722 -10.592844 -0.524780 -2.232094 7.700274 38.907104 57.159531 -27.841528 -0.000033 0.000012 0.004027 91.287865 -0.004141 -28.328840 0.000000 0.000053 -3.606406 -5.202541 -12.653765 -8.076673 -0.488446 -3.806011 -0.628941 -7.411279 -5.172130 -3.600029 0.000039 0.000051 8.069820 -6.824543 99.571915 -2.114202 0.000009 0.000014 10.856030 -5.699082 124.706253 -1.975685 -0.000017 0.000010 0.000001 0.000002 -0.000000 -9.103591 -0.043916 -1.865074 -0.682801 -5.651645 -6.851058 -3.154023 0.000031 0.000054 8.346898 -6.773931 101.911697 -2.937665 -0.000052 -0.000025 8.610427 -6.705752 104.170921 -2.647451 0.000028 -0.000009 -0.000001 0.000002 0.000002 -9.532501 -0.000012 0.000014 0.123714 1.305899 -10.835579 -3.698243 0.000022 -0.000031 9.457668 -6.442340 111.541512 -2.950930 0.000013 0.000002 9.261980 -6.507198 109.814545 -2.833898 0.000015 0.000050 -0.000000 -0.000002 -0.000001 -9.108282 -0.516780 2.260116 1.489331 7.932328 -11.270849 -3.676419 0.000022 0.000030 10.310418 -6.038760 119.374168 -2.883080 -0.000060 0.000051 9.083031 -6.577005 108.237892 -2.392720 0.000031 0.000041 -0.000002 0.000001 0.000002 -2.464803 -1.572713 2.682633 -16.757265 12.524901 -6.107165 -3.229778 -1.864709 1.864702 19.470228 -27.123249 3.369754 -2.652602 -1.531455 1.531442 36.148083 -53.487572 18.709316 -1.954601 -1.128463 1.128508 -0.000001 0.000001 0.000002 8.207781 -6.751713 -1.599565 -53.490540 -11.173376 20.173342 0.000001 -44.370468 0.284639 80.670296 -0.708197 0.718796 -0.000003 -44.427872 -2.982191 -26.463076 4.467740 -15.200828 0.000002 -8.728669 10.710563 -7.032081 -0.000002 0.000018 -0.000000 -0.000676 9.278131 -0.000001 -0.000001 -0.000000 -8.207798 -6.751659 -1.599559 -25.727215 1.095481 -20.887072 0.000001 -44.370533 0.286157 62.608280 -9.456130 -7.516063 0.000002 -44.427727 -2.983787 -15.199351 -19.624811 30.163172 0.000003 -8.728669 10.710560 -12.732927 0.000027 0.000020 0.000001 -0.000676 9.278120 0.000001 -0.000000 -0.000000 
4.428133 -27.767807 13.883426 5.940978 -46.058319 -2.695509 0.000009 10.181585 0.131522 7.937230 1.412208 2.598778 0.000001 10.083458 -1.000803 3.101896 0.387498 0.267337 0.000000 9.100007 -1.373419 3.105600 0.351324 0.268968 0.000000 16.671675 -2.516169 2.863325 2.722468 -1.313246 0.000003 9.617909 1.685010 22.523655 12.674803 -22.654369 -0.000002 17.815155 2.584985 0.000001 0.000000 -0.000000 3.067559 6.409515 9.283551 0.000001 0.000000 -0.000000 -3.067550 6.409500 9.283554 0.000001 0.000000 -0.000000 4.570449 10.945980 -2.627986 -1.017450 6.540863 7.383525 10.592373 -0.524580 -2.232117 -41.065273 -56.554745 -14.003186 27.841515 -0.000086 0.000038 -0.000089 -23.599907 -0.000222 28.328833 -0.000012 0.000040 7.525145 9.338248 65.946800 2.466141 -1.575063 2.682408 -0.014347 -6.740408 14.852750 3.229806 -1.864717 1.864678 -6.214737 30.403179 -6.095116 2.652565 -1.531476 1.531469 18.159651 67.040718 3.128386 1.954568 -1.128511 1.128511 0.000000 -0.000000 -0.000000 9.109310 -0.517089 2.260068 0.514804 -2.997138 13.059667 3.676425 -0.000024 0.000023 10.211508 5.981044 -119.370728 2.883073 0.000045 -0.000041 6.890826 6.855269 -90.297325 2.392711 0.000046 0.000032 -0.000000 0.000000 0.000002 9.533405 -0.000038 0.000012 0.153320 -1.445088 12.112668 3.698244 -0.000003 0.000022 9.368758 6.380027 -111.554962 2.950930 -0.000026 0.000012 7.079262 6.851710 -91.876282 2.833892 -0.000063 -0.000012 0.000001 0.000000 0.000000 9.104530 -0.043949 -1.865090 -1.300551 6.664504 10.645805 3.154013 -0.000018 0.000011 8.973704 6.521326 -108.039856 2.937670 -0.000037 -0.000005 8.529686 6.648678 -104.169212 2.647441 -0.000029 0.000002 -0.000000 0.000000 0.000002 8.077782 -0.488685 -3.806072 -1.858457 15.674594 7.705473 3.600039 -0.000019 -0.000030 7.987554 2.674965 -99.510490 2.114207 0.000008 0.000003 10.751888 5.644625 -124.702477 1.975678 0.000017 -0.000043 -0.000001 -0.000000 -0.000000 -4.569968 10.946183 -2.628019 3.116103 9.823188 1.314626 -10.592843 -0.524811 -2.232097 8.608984 37.896935 62.821507 -27.841524 -0.000023 0.000010 0.000140 96.126465 -0.000138 -28.328842 -0.000005 0.000061 -4.934185 -6.772710 -15.733853 -8.076671 -0.488434 -3.806009 -0.628934 -7.411272 -5.172103 -3.600033 0.000026 0.000054 8.069819 -6.824546 99.571915 -2.114217 0.000010 0.000006 10.856034 -5.699082 124.706253 -1.975682 -0.000013 -0.000001 0.000001 -0.000000 0.000002 -9.103583 -0.043894 -1.865073 -0.682810 -5.651664 -6.851054 -3.154019 0.000030 0.000051 8.346898 -6.773933 101.911697 -2.937671 -0.000036 -0.000046 8.610431 -6.705749 104.170921 -2.647454 0.000030 0.000002 -0.000002 0.000001 -0.000000 -9.532499 -0.000017 0.000017 0.123713 1.305876 -10.835573 -3.698236 0.000003 -0.000021 9.457668 -6.442340 111.541512 -2.950920 0.000013 -0.000011 9.261981 -6.507199 109.814545 -2.833902 0.000013 0.000050 -0.000001 -0.000000 -0.000002 -9.108277 -0.516763 2.260118 1.489348 7.932309 -11.270865 -3.676411 0.000030 0.000037 10.310418 -6.038758 119.374168 -2.883065 -0.000048 0.000037 9.083030 -6.577006 108.237892 -2.392718 0.000034 0.000030 -0.000001 -0.000001 0.000001 -2.464806 -1.572706 2.682631 -16.757265 12.524929 -6.107177 -3.229776 -1.864702 1.864711 19.470226 -27.123259 3.369770 -2.652601 -1.531444 1.531453 36.148083 -53.487576 18.709320 -1.954578 -1.128464 1.128509 -0.000001 0.000000 -0.000002 8.207780 -6.751721 -1.599570 -55.088451 -13.294636 19.448372 -0.000002 -44.370476 0.284647 82.588615 -0.096778 1.143631 0.000003 -44.427864 -2.982192 -26.332548 4.689176 -16.194876 -0.000003 -8.728671 10.710560 -7.250627 -0.000038 -0.000005 -0.000007 -0.000677 9.278133 -0.000000 -0.000001 -0.000000 -8.207796 -6.751674 -1.599557 -27.448381 1.740854 -21.030230 -0.000002 -44.370529 0.286156 66.380447 -9.035043 -6.133981 0.000002 -44.427727 -2.983787 -15.455554 -21.062643 30.250196 -0.000002 -8.728670 10.710563 -13.397083 -0.000011 -0.000008 -0.000003 -0.000675 9.278120 -0.000000 -0.000000 0.000001 
4.109949 -28.475185 13.312168 5.301184 -42.137871 -3.197636 0.000009 10.181599 0.131523 8.273678 0.971053 2.504755 0.000001 10.083465 -1.000803 3.174089 0.203884 0.301308 -0.000000 9.100013 -1.373417 3.175748 0.171688 0.302396 -0.000001 16.671671 -2.516166 3.336301 2.191946 -0.630883 0.000001 9.617891 1.685008 25.736286 10.619646 -22.779882 -0.000000 17.815186 2.584959 0.000003 -0.000001 0.000000 3.067559 6.409530 9.283531 0.000003 -0.000001 0.000000 -3.067550 6.409515 9.283533 0.000003 -0.000001 0.000000 4.570442 10.945982 -2.627989 -0.720500 5.318050 6.375816 10.592371 -0.524556 -2.232124 -55.463062 -43.419392 -30.615793 27.841516 -0.000088 0.000035 -0.000247 -47.775009 -0.000322 28.328829 -0.000014 0.000037 8.657469 16.156979 60.847916 2.466109 -1.575047 2.682411 -0.014338 -6.740386 14.852745 3.229796 -1.864687 1.864678 -6.214727 30.403173 -6.095136 2.652556 -1.531491 1.531473 18.159655 67.040718 3.128394 1.954557 -1.128480 1.128480 -0.000001 -0.000001 0.000001 9.109292 -0.517077 2.260079 0.514800 -2.997145 13.059640 3.676429 -0.000017 0.000036 10.211506 5.981043 -119.370728 2.883069 0.000020 -0.000040 6.890837 6.855236 -90.297340 2.392742 0.000044 0.000027 -0.000001 -0.000001 -0.000001 9.533368 -0.000024 0.000017 0.153325 -1.445080 12.112673 3.698257 0.000005 0.000007 9.368760 6.380027 -111.554962 2.950909 -0.000049 0.000018 7.079274 6.851684 -91.876282 2.833879 -0.000060 -0.000008 -0.000002 0.000000 -0.000001 9.104507 -0.043933 -1.865082 -1.300559 6.664520 10.645815 3.154030 0.000005 0.000012 8.973706 6.521327 -108.039856 2.937663 -0.000026 -0.000004 8.529686 6.648676 -104.169205 2.647444 -0.000046 0.000004 -0.000001 0.000001 0.000001 8.077761 -0.488647 -3.806062 -1.858461 15.674601 7.705476 3.600019 0.000006 -0.000032 7.987554 2.674965 -99.510490 2.114211 0.000008 0.000003 10.751892 5.644623 -124.702477 1.975683 -0.000001 -0.000046 -0.000000 0.000000 0.000001 -4.569973 10.946171 -2.628018 3.005518 9.359015 1.703371 -10.592852 -0.524812 -2.232091 7.390536 33.583839 67.735184 -27.841522 -0.000035 0.000015 0.000118 103.568314 -0.000136 -28.328840 0.000015 0.000057 6.540175 -4.394134 -7.817896 -8.076674 -0.488443 -3.805999 -0.628940 -7.411261 -5.172121 -3.600032 0.000041 0.000061 8.069816 -6.824544 99.571915 -2.114217 0.000010 0.000015 10.856032 -5.699083 124.706253 -1.975686 -0.000013 0.000003 -0.000000 0.000000 -0.000003 -9.103593 -0.043919 -1.865071 -0.682802 -5.651648 -6.851046 -3.154034 0.000028 0.000045 8.346900 -6.773932 101.911697 -2.937665 -0.000049 -0.000028 8.610423 -6.705752 104.170921 -2.647452 0.000032 -0.000003 0.000000 0.000000 -0.000000 -9.532507 -0.000017 0.000020 0.123726 1.305884 -10.835573 -3.698243 0.000030 -0.000027 9.457668 -6.442337 111.541519 -2.950915 0.000012 -0.000001 9.261975 -6.507199 109.814545 -2.833897 0.000015 0.000050 -0.000000 0.000001 -0.000001 -9.108282 -0.516784 2.260116 1.489341 7.932326 -11.270872 -3.676411 0.000007 0.000039 10.310418 -6.038758 119.374168 -2.883058 -0.000033 0.000037 9.083031 -6.577006 108.237892 -2.392722 0.000033 0.000036 0.000002 0.000002 -0.000000 -2.464803 -1.572702 2.682634 -16.757248 12.524906 -6.107174 -3.229775 -1.864704 1.864719 19.470211 -27.123236 3.369724 -2.652608 -1.531439 1.531444 36.148083 -53.487572 18.709318 -1.954571 -1.128463 1.128507 0.000000 0.000000 0.000002 8.207784 -6.751705 -1.599563 -56.655712 -15.131458 17.281759 0.000000 -44.370476 0.284639 83.325928 -1.401397 1.318503 0.000002 -44.427879 -2.982187 -25.475023 4.498675 -15.975604 -0.000004 -8.728671 10.710559 -7.438262 -0.000039 -0.000008 -0.000002 -0.000677 9.278137 -0.000000 -0.000001 -0.000000 -8.207798 -6.751651 -1.599563 -26.817762 -0.694552 -21.826244 -0.000000 -44.370537 0.286153 68.384048 -9.739118 -6.068145 0.000002 -44.427727 -2.983786 -16.534988 -22.100082 30.369143 -0.000004 -8.728669 10.710561 -13.255916 -0.000004 0.000006 0.000003 -0.000676 9.278118 0.000001 0.000000 -0.000000 
